<?xml version="1.0" encoding="utf-8"?>
<!-- Generator: Adobe Illustrator 26.4.1, SVG Export Plug-In . SVG Version: 6.00 Build 0)  -->
<svg version="1.1" id="Capa_1" xmlns="http://www.w3.org/2000/svg" xmlns:xlink="http://www.w3.org/1999/xlink" x="0px" y="0px"
	 viewBox="0 0 33.1 12.1" style="enable-background:new 0 0 33.1 12.1;" xml:space="preserve">
<style type="text/css">
	.st0{fill:#FFFFFF;}
</style>
<g id="Grupo_464_00000181084902414872713710000014593707252300955815_" transform="translate(359.744 104)">
	<path id="Trazado_1133_00000000197629125737989310000003519483211974939045_" class="st0" d="M-355-103.8l-4,4
		c-0.2,0.2-0.2,0.6,0,0.9l0,0c0.2,0.2,0.6,0.2,0.9,0l3.1-3.1l4.2,4.2l0.9-0.9L-355-103.8z"/>
	<path id="Trazado_1134_00000082342112981318780020000001537089820433577614_" class="st0" d="M-328.2-98.7l-2.9,2.9l-7.9-7.9l-5,5
		l0.9,0.9l4.2-4.2l7.9,7.9l3.8-3.8c0.2-0.2,0.2-0.6,0-0.9l0,0C-327.5-99-327.9-99-328.2-98.7z"/>
	<path id="Trazado_1135_00000170277496686723248380000006882742733675026064_" class="st0" d="M-350.8-97.8l-0.9,0.9l4.8,4.8
		l4.7-4.7l-0.9-0.9L-347-94L-350.8-97.8z"/>
	
		<rect id="Rectángulo_1443_00000094600616879394863730000015136314970179254146_" x="-349.1" y="-100.8" transform="matrix(0.7071 -0.7071 0.7071 0.7071 -31.8487 -274.2729)" class="st0" width="4.1" height="4.2"/>
</g>
</svg>
