<svg xmlns="http://www.w3.org/2000/svg" width="43.744" height="12.492" viewBox="0 0 43.744 12.492">
  <g id="Grupo_1270" data-name="Grupo 1270" transform="translate(0 0)">
    <path id="Trazado_2213" data-name="Trazado 2213" d="M1.532,211.422a.987.987,0,0,0-1.173.75,10.661,10.661,0,0,0-.246,2.28.986.986,0,0,0,.984.984h0a.986.986,0,0,0,.983-.984,8.707,8.707,0,0,1,.2-1.857.986.986,0,0,0-.75-1.173" transform="translate(-0.113 -203.147)" fill="rgba(0,0,0,0.4)"/>
    <path id="Trazado_2214" data-name="Trazado 2214" d="M6.6,200.95A11.683,11.683,0,0,0,3.4,203.957a.985.985,0,0,0,.8,1.561h0a.984.984,0,0,0,.8-.409,9.754,9.754,0,0,1,2.665-2.5A.985.985,0,0,0,6.6,200.95" transform="translate(-1.34 -198.959)" fill="rgba(0,0,0,0.4)"/>
    <path id="Trazado_2215" data-name="Trazado 2215" d="M19.318,197.837a13.164,13.164,0,0,0-4.346.229.986.986,0,0,0-.1,1.894l-.051.052h.365a1,1,0,0,0,.216-.024,11.212,11.212,0,0,1,3.692-.195.962.962,0,0,0,.725-.207.985.985,0,0,0-.5-1.749" transform="translate(-5.683 -197.752)" fill="rgba(0,0,0,0.4)"/>
    <path id="Trazado_2216" data-name="Trazado 2216" d="M28.657,199.854a.985.985,0,1,0-.872,1.766,9.99,9.99,0,0,1,2.941,2.185.987.987,0,0,0,.721.316h0a.984.984,0,0,0,.721-1.654,11.969,11.969,0,0,0-3.514-2.613" transform="translate(-10.835 -198.543)" fill="rgba(0,0,0,0.4)"/>
    <path id="Trazado_2217" data-name="Trazado 2217" d="M41.242,211.581a10,10,0,0,1-2.919-2.214.984.984,0,1,0-1.459,1.322,11.941,11.941,0,0,0,3.487,2.649.977.977,0,0,0,.444.106v0h0a.984.984,0,0,0,.444-1.863" transform="translate(-14.54 -202.216)" fill="rgba(0,0,0,0.4)"/>
    <path id="Trazado_2218" data-name="Trazado 2218" d="M65.618,207.913a.989.989,0,0,0-1.377.206,9.76,9.76,0,0,1-2.69,2.476.984.984,0,0,0,.522,1.818h0a.972.972,0,0,0,.522-.151,11.709,11.709,0,0,0,3.227-2.971.987.987,0,0,0-.2-1.378" transform="translate(-24.218 -201.693)" fill="rgba(0,0,0,0.4)"/>
    <path id="Trazado_2219" data-name="Trazado 2219" d="M53.812,214.873a.983.983,0,0,0-.742-.137,11.2,11.2,0,0,1-3.694.158.985.985,0,0,0-.243,1.954,13.46,13.46,0,0,0,1.622.1h.009a13.134,13.134,0,0,0,2.717-.285.985.985,0,0,0,.331-1.791" transform="translate(-19.15 -204.458)" fill="rgba(0,0,0,0.4)"/>
    <path id="Trazado_2220" data-name="Trazado 2220" d="M70.022,198.254a.988.988,0,0,0-.984.974,8.666,8.666,0,0,1-.221,1.855,1.009,1.009,0,0,0-.025.221.984.984,0,0,0,1.943.221,10.646,10.646,0,0,0,.271-2.277.988.988,0,0,0-.984-.994" transform="translate(-27.263 -197.95)" fill="rgba(0,0,0,0.4)"/>
  </g>
</svg>
