<?xml version="1.0" encoding="utf-8"?>
<!-- Generator: Adobe Illustrator 26.4.1, SVG Export Plug-In . SVG Version: 6.00 Build 0)  -->
<svg version="1.1" id="Capa_1" xmlns="http://www.w3.org/2000/svg" xmlns:xlink="http://www.w3.org/1999/xlink" x="0px" y="0px"
	 viewBox="0 0 33.1 12.1" style="enable-background:new 0 0 33.1 12.1;" xml:space="preserve">
<style type="text/css">
	.st0{fill:#FFFFFF;}
</style>
<g>
	<path class="st0" d="M31.9,5.4l-3,3l-8.1-8.1L15,6.2c0.3,0.3,0.6,0.7,0.7,1.1l5.1-5.1l8.1,8.1l3.9-3.9c0.3-0.3,0.3-0.7,0-0.9v0
		C32.5,5.2,32.1,5.2,31.9,5.4z"/>
	<path class="st0" d="M10.4,6.2l-6-6L0.4,4.4C0.1,4.6,0.1,5,0.4,5.3l0,0c0.3,0.3,0.7,0.3,0.9,0l3.2-3.2l5.2,5.2
		C9.9,6.9,10.1,6.5,10.4,6.2z"/>
	<path class="st0" d="M15,6.2c-0.6-0.6-1.4-0.9-2.2-0.9c-0.9,0-1.7,0.4-2.3,0.9l2.2,2.2L15,6.2z"/>
	<path class="st0" d="M9.7,7.3C9.5,7.7,9.5,8.1,9.5,8.6c0,1.8,1.5,3.3,3.3,3.3S16,10.3,16,8.6c0-0.5-0.1-0.9-0.3-1.3l-3,3L9.7,7.3z"
		/>
</g>
</svg>
