<?xml version="1.0" encoding="utf-8"?>
<!-- Generator: Adobe Illustrator 26.4.1, SVG Export Plug-In . SVG Version: 6.00 Build 0)  -->
<svg version="1.1" id="Capa_1" xmlns="http://www.w3.org/2000/svg" xmlns:xlink="http://www.w3.org/1999/xlink" x="0px" y="0px"
	 viewBox="0 0 46 16" style="enable-background:new 0 0 46 16;" xml:space="preserve">
<style type="text/css">
	.st0{fill:#FFFFFF;}
</style>
<path class="st0" d="M45.9,7.4c-2.4-4.2-7-6.8-11.9-6.8c-4.3,0-8.4,2.1-11,5.5c-2.6-3.4-6.7-5.5-11-5.5c-4.9,0-9.4,2.6-11.9,6.8
	C-0.1,7.9,0,8.5,0.5,8.8C0.7,8.8,0.8,8.9,1,8.9c0.4,0,0.7-0.2,0.9-0.5C3.8,5.1,7.2,2.9,11,2.6v11.9c0,0.6,0.5,1,1,1c0.6,0,1-0.5,1-1
	V2.6c3.8,0.3,7.2,2.5,9.1,5.8l0.3,0.5h1.2l0.3-0.5c1.9-3.3,5.3-5.5,9.1-5.8v11.9c0,0.6,0.5,1,1,1s1-0.5,1-1V2.6
	c3.8,0.3,7.2,2.5,9.1,5.8C44.4,8.9,45,9,45.5,8.8C46,8.5,46.1,7.9,45.9,7.4z"/>
</svg>
