<?xml version="1.0" encoding="utf-8"?>
<!-- Generator: Adobe Illustrator 26.4.1, SVG Export Plug-In . SVG Version: 6.00 Build 0)  -->
<svg version="1.1" id="Capa_1" xmlns="http://www.w3.org/2000/svg" xmlns:xlink="http://www.w3.org/1999/xlink" x="0px" y="0px"
	 viewBox="0 0 46 13" style="enable-background:new 0 0 46 13;" xml:space="preserve">
<style type="text/css">
	.st0{fill:#FFFFFF;}
</style>
<path class="st0" d="M44.9,6.5c-0.4,0-0.8,0.3-0.9,0.7c-0.4,2.3-2.5,4-5,3.8c-2.4-0.2-4.2-2.4-4.2-4.8v0c0-2.3-1.3-4.5-3.3-5.4
	c-4.7-2.2-9.4,1.2-9.4,5.7c0,2.7-2.4,4.9-5.2,4.5c-2.3-0.3-4-2.4-4-4.7v0c0-2.3-1.3-4.5-3.3-5.4C4.8-1.4,0.2,2,0.2,6.5h0
	c0,0,0,0,0,0.1c0,0.5,0.4,0.9,0.9,0.9S2,7,2,6.5c0,0,0,0,0-0.1h0c0,0,0,0,0,0c0-3.6,4.2-6.3,8-3.4c0.9,0.7,1.4,1.9,1.3,3
	c0,0.2,0,0.3,0,0.5c0,3.8,3.4,6.8,7.3,6.2c3.1-0.5,5.4-3.3,5.4-6.5v0c0-1.6,0.9-3.2,2.4-3.9c3.5-1.7,6.9,0.8,6.9,4.1
	c0,3.5,2.8,6.3,6.4,6.4c3.2,0,5.8-2.3,6.3-5.4C45.8,6.9,45.4,6.5,44.9,6.5z"/>
</svg>
