<svg xmlns="http://www.w3.org/2000/svg" width="74.776" height="17.753" viewBox="0 0 74.776 17.753">
  <path id="Trazado_261" data-name="Trazado 261" d="M-597.177-945.247A10.738,10.738,0,0,1-604-947.695a10.77,10.77,0,0,1-3.34-4.842h-.113l-.26-1.268a7.569,7.569,0,0,0-7.393-6.022,7.569,7.569,0,0,0-7.393,6.022l-.26,1.268h-.113a10.77,10.77,0,0,1-3.34,4.842,10.738,10.738,0,0,1-6.818,2.448,10.738,10.738,0,0,1-6.818-2.448,10.77,10.77,0,0,1-3.34-4.842h-.113l-.26-1.268a7.569,7.569,0,0,0-7.393-6.022,7.569,7.569,0,0,0-7.393,6.022l-3.109-.637a10.751,10.751,0,0,1,3.683-6.11A10.738,10.738,0,0,1-650.949-963a10.738,10.738,0,0,1,6.818,2.448,10.772,10.772,0,0,1,3.34,4.842h.113l.26,1.268a7.569,7.569,0,0,0,7.393,6.022,7.569,7.569,0,0,0,7.393-6.022l.26-1.268h.113a10.769,10.769,0,0,1,3.34-4.842A10.738,10.738,0,0,1-615.1-963a10.738,10.738,0,0,1,6.818,2.448,10.77,10.77,0,0,1,3.34,4.842h.113l.26,1.268a7.569,7.569,0,0,0,7.393,6.022,7.569,7.569,0,0,0,7.393-6.022l3.109.637a10.751,10.751,0,0,1-3.683,6.11A10.738,10.738,0,0,1-597.177-945.247Z" transform="translate(661.451 963)" fill="#fff"/>
</svg>
