<?xml version="1.0" encoding="utf-8"?>
<!-- Generator: Adobe Illustrator 26.3.1, SVG Export Plug-In . SVG Version: 6.00 Build 0)  -->
<svg version="1.1" id="Capa_1" xmlns="http://www.w3.org/2000/svg" xmlns:xlink="http://www.w3.org/1999/xlink" x="0px" y="0px"
	 viewBox="0 0 227.5 67.5" style="enable-background:new 0 0 227.5 67.5;" xml:space="preserve">
<style type="text/css">
	.st1{fill:#fff;}
</style>
<g class="st0">
	<path class="st1" d="M221.4,7.4c-2.8,0-5,2.1-5.3,4.9c-2.7,24.1-25,43-52,43c-18.2,0.2-35.3-8.9-45.3-24.1l-0.8-1.2
		C106,11.7,85.5,0.8,63.6,1C31.4,1,4.5,23.9,1,53.2c-0.4,3.1,2.1,5.9,5.3,5.9h0c2.8,0,5.1-2.1,5.4-4.8c2.9-23.9,25.2-42.6,51.9-42.6
		C81.9,11.5,99,20.6,109,35.9l0.8,1.2c12,18.3,32.5,29.3,54.4,29.1c32.6,0,59.5-23.2,62.7-52.8C227.2,10.2,224.6,7.4,221.4,7.4
		L221.4,7.4z"/>
	<path class="st1" d="M52.4,33.5c-5.2,0-9.4,4.2-9.4,9.4c0,5.2,4.2,9.4,9.4,9.4s9.4-4.2,9.4-9.4C61.8,37.6,57.6,33.5,52.4,33.5z"/>
	<path class="st1" d="M77.4,33.5c-5.2,0-9.4,4.2-9.4,9.4c0,5.2,4.2,9.4,9.4,9.4c5.2,0,9.4-4.2,9.4-9.4
		C86.7,37.6,82.5,33.5,77.4,33.5z"/>
	<path class="st1" d="M152.3,35.9c5.2,0,9.4-4.2,9.4-9.4c0-5.2-4.2-9.4-9.4-9.4s-9.4,4.2-9.4,9.4C142.9,31.8,147.1,35.9,152.3,35.9z
		"/>
	<path class="st1" d="M177.2,35.9c5.2,0,9.4-4.2,9.4-9.4c0-5.2-4.2-9.4-9.4-9.4s-9.4,4.2-9.4,9.4C167.9,31.8,172.1,35.9,177.2,35.9z
		"/>
</g>
</svg>
