<?xml version="1.0" encoding="utf-8"?>
<!-- Generator: Adobe Illustrator 26.4.1, SVG Export Plug-In . SVG Version: 6.00 Build 0)  -->
<svg version="1.1" id="Capa_1" xmlns="http://www.w3.org/2000/svg" xmlns:xlink="http://www.w3.org/1999/xlink" x="0px" y="0px"
	 viewBox="0 0 27.4 12.1" style="enable-background:new 0 0 27.4 12.1;" xml:space="preserve">
<style type="text/css">
	.st0{fill:#FFFFFF;}
</style>
<g>
	<path class="st0" d="M26.2,4.7L25,6l-3.2-3.2l-3.1,3.1l-4.6,4.4l-3.6-3.6l2-2l1.3,1.3c0.2,0.2,0.6,0.2,0.8,0l0,0
		c0.2-0.2,0.2-0.6,0-0.8L12.5,3L8.8,6.6l5.3,5.3l5.4-5.3l2.3-2.3L25,7.6l2.1-2.1c0.2-0.2,0.2-0.6,0-0.8l0,0
		C26.8,4.5,26.5,4.5,26.2,4.7z"/>
	<path class="st0" d="M16.2,5.4l-2,2L13,6.2c-0.2-0.2-0.6-0.2-0.8,0l0,0c-0.2,0.2-0.2,0.6,0,0.8l2.1,2l3.6-3.6l-5.3-5.3l-7,7L2.4,4
		l-2,2c-0.2,0.2-0.2,0.6,0,0.8l0,0c0.2,0.2,0.6,0.2,0.8,0l1.2-1.2l3.2,3.2l7-7L16.2,5.4z"/>
</g>
</svg>
