<?xml version="1.0" encoding="utf-8"?>
<!-- Generator: Adobe Illustrator 26.4.1, SVG Export Plug-In . SVG Version: 6.00 Build 0)  -->
<svg version="1.1" id="Capa_1" xmlns="http://www.w3.org/2000/svg" xmlns:xlink="http://www.w3.org/1999/xlink" x="0px" y="0px"
	 viewBox="0 0 46 17" style="enable-background:new 0 0 46 17;" xml:space="preserve">
<style type="text/css">
	.st0{fill:#FFFFFF;}
</style>
<path class="st0" d="M42.8,11.8C44.5,10,45.7,7.6,46,5c0.1-0.6-0.5-1.2-1.1-1.2l0,0c-0.6,0-1,0.4-1.1,1c-0.5,4.7-4.6,8.3-9.7,8.7
	V9.2c0-0.4-0.4-0.8-0.8-0.8c-0.4,0-0.8,0.4-0.8,0.8v4.4c-3.4-0.2-6.6-2-8.5-4.9l-0.2-0.2c-0.5-0.8-1.2-1.6-1.9-2.2l3.6-3.6
	c0.3-0.3,0.3-0.8,0-1.1c-0.3-0.3-0.8-0.3-1.1,0l-3.7,3.7c-2.3-1.7-5.1-2.7-8-2.6c-2.3,0-4.5,0.6-6.4,1.6L3.7,0.3
	C3.5,0,3-0.1,2.6,0.1C2.3,0.4,2.2,0.9,2.4,1.3L5,5c-2.7,1.9-4.6,4.8-5,8.2c-0.1,0.6,0.4,1.2,1.1,1.2h0c0.6,0,1-0.4,1.1-1
	c0.6-4.6,4.7-8.3,9.7-8.6v5c0,0.4,0.4,0.8,0.8,0.8c0.4,0,0.8-0.4,0.8-0.8V4.8C17,5,20.1,6.8,22,9.6l0.2,0.2c2.4,3.7,6.6,6,11.1,5.9
	c3.2,0,6.1-1.1,8.4-2.9l2.7,3.8c0.2,0.2,0.4,0.3,0.7,0.3c0.2,0,0.3,0,0.5-0.1c0.4-0.3,0.5-0.8,0.2-1.1L42.8,11.8z"/>
</svg>
