<svg xmlns="http://www.w3.org/2000/svg" width="43.744" height="16.215" viewBox="0 0 43.744 16.215">
  <path id="Trazado_2288" data-name="Trazado 2288" d="M41.985,155.48a10.978,10.978,0,0,0,3.061-6.429,1.042,1.042,0,0,0-2.074-.2c-.485,4.423-4.369,7.932-9.21,8.3v-4.188a.765.765,0,0,0-1.53,0v4.213a10.345,10.345,0,0,1-8.1-4.657l-.155-.225a12.424,12.424,0,0,0-1.775-2.135l3.385-3.385A.765.765,0,0,0,24.5,145.7l-3.472,3.472a12.436,12.436,0,0,0-7.59-2.5A12.762,12.762,0,0,0,7.373,148.2l-2.506-3.62a.765.765,0,0,0-1.258.871l2.463,3.557a11.237,11.237,0,0,0-4.757,7.772,1.042,1.042,0,0,0,2.071.231c.531-4.391,4.442-7.873,9.265-8.219v4.79a.765.765,0,1,0,1.53,0v-4.806a10.344,10.344,0,0,1,8.038,4.651l.155.225a12.446,12.446,0,0,0,10.533,5.629,12.671,12.671,0,0,0,7.941-2.756l2.534,3.614a.765.765,0,0,0,1.252-.879Z" transform="translate(-1.308 -144.249)" fill="rgba(0,0,0,0.4)"/>
</svg>
