<?xml version="1.0" encoding="utf-8"?>
<!-- Generator: Adobe Illustrator 26.4.1, SVG Export Plug-In . SVG Version: 6.00 Build 0)  -->
<svg version="1.1" id="Capa_1" xmlns="http://www.w3.org/2000/svg" xmlns:xlink="http://www.w3.org/1999/xlink" x="0px" y="0px"
	 viewBox="0 0 46 16" style="enable-background:new 0 0 46 16;" xml:space="preserve">
<style type="text/css">
	.st0{fill:#FFFFFF;}
</style>
<path class="st0" d="M45.2,5.5c0.1-0.4,0.2-0.9,0.2-1.4C45.5,3.5,45,3,44.3,3h0c-0.6,0-1,0.4-1.1,1c0,0.3-0.1,0.6-0.2,1
	c-1,0.2-1.7,1.1-1.7,2.2c0,0.4,0.1,0.7,0.3,1.1c-1.2,1.8-3.1,3.1-5.2,3.9c-0.4-0.5-1-0.8-1.7-0.8c-0.9,0-1.7,0.6-2.1,1.4
	c-2.9,0-5.7-1.2-7.7-3.3c0.5-0.7,0.7-1.5,0.6-2.4c-0.2-1.1-1.1-2.1-2.2-2.4c-0.9-0.3-1.7-0.1-2.4,0.2c-1.8-1.5-4-2.4-6.3-2.8
	c-0.3-0.8-1.1-1.4-2.1-1.4c-1,0-1.8,0.6-2.1,1.5C7.2,2.4,4.3,4.2,2.4,6.7c-1.2,0.1-2.1,1-2.1,2.2c0,0.4,0.1,0.9,0.4,1.2
	c-0.2,0.6-0.3,1.3-0.4,2c-0.1,0.6,0.4,1.2,1.1,1.2h0c0.6,0,1-0.4,1.1-1c0.1-0.4,0.1-0.8,0.2-1.2c1.2-0.1,2.1-1,2.1-2.2
	c0-0.4-0.1-0.9-0.4-1.2C5.9,5.8,8.2,4.4,10.9,4c0.4,0.5,1,0.8,1.7,0.8c0.7,0,1.4-0.4,1.8-0.9c1.9,0.3,3.6,1,5.1,2.2
	c-0.2,0.4-0.2,0.8-0.2,1.2c0,0.8,0.4,1.5,0.9,2c1.2,1.2,2.2,1.2,3,1c2.4,2.7,6,4.3,9.7,4.3c0,0,0.1,0,0.1,0c0.4,0.5,1,0.9,1.8,0.9
	c1,0,1.8-0.6,2.1-1.5c2.8-0.9,5.1-2.6,6.7-4.9c0,0,0.1,0,0.1,0c1.2,0,2.2-1,2.2-2.2C45.8,6.4,45.6,5.9,45.2,5.5z"/>
</svg>
