<?xml version="1.0" encoding="utf-8"?>
<!-- Generator: Adobe Illustrator 26.4.1, SVG Export Plug-In . SVG Version: 6.00 Build 0)  -->
<svg version="1.1" id="Capa_1" xmlns="http://www.w3.org/2000/svg" xmlns:xlink="http://www.w3.org/1999/xlink" x="0px" y="0px"
	 viewBox="0 0 41.9 12.1" style="enable-background:new 0 0 41.9 12.1;" xml:space="preserve">
<style type="text/css">
	.st0{opacity:0.8;fill:#FFFFFF;}
</style>
<g>
	<path id="Trazado_1143_00000158029559528623208460000016163184457906030977_" class="st0" d="M11.8,11.8c-5.9,0-10.8-4.3-11.3-9.7
		c0-0.5,0.3-0.9,0.8-0.9h0C1.6,1.3,2,1.6,2,2c0.4,4.6,4.6,8.3,9.7,8.3c3.4,0,6.6-1.7,8.5-4.5l0.1-0.2c2.2-3.3,5.9-5.3,9.8-5.2
		c5.9,0,10.8,4.2,11.3,9.6c0,0.5-0.3,0.9-0.8,0.9l0,0c-0.4,0-0.7-0.3-0.8-0.7c-0.4-4.6-4.7-8.2-9.7-8.2c-3.4,0-6.6,1.7-8.5,4.5
		l-0.1,0.2C19.4,9.9,15.7,11.8,11.8,11.8z"/>
	<g>
		<path class="st0" d="M12.4,9.3l-0.1-1.6c1-0.1,1.9-0.3,2.8-0.7l0.6,1.4C14.6,8.9,13.5,9.2,12.4,9.3z"/>
		<path class="st0" d="M11.1,9.2C9.9,9.2,8.8,8.9,7.8,8.4L8.4,7c0.9,0.4,1.8,0.6,2.8,0.7L11.1,9.2z"/>
		<path class="st0" d="M16.8,7.8L16,6.5c0.6-0.4,1.2-0.8,1.6-1.4c0.3-0.3,0.7-0.4,1-0.1v0c0.4,0.3,0.4,0.8,0.1,1.2
			C18.2,6.8,17.6,7.4,16.8,7.8L16.8,7.8z"/>
		<path class="st0" d="M6.6,7.8c-1-0.6-1.8-1.4-2.5-2.4l1.3-0.9c0.5,0.8,1.2,1.5,2,2L6.6,7.8z"/>
		<path class="st0" d="M3.5,4.2C3.1,3.4,2.9,2.6,2.8,1.7C2.7,1.2,3.1,0.8,3.6,0.8h0c0.4,0,0.7,0.3,0.8,0.7c0.1,0.7,0.3,1.4,0.6,2
			L3.5,4.2z"/>
	</g>
	<g>
		<path class="st0" d="M25.3,4.1l0.8,1.3c-0.6,0.4-1.2,0.8-1.6,1.4c-0.3,0.3-0.7,0.4-1,0.1l0,0c-0.4-0.3-0.4-0.8-0.1-1.2
			C23.9,5.1,24.5,4.6,25.3,4.1L25.3,4.1z"/>
		<path id="Trazado_1145_00000136405893885018154310000013610608420019848124_" class="st0" d="M38.4,11L38.4,11
			c-0.4,0-0.7-0.3-0.8-0.7c-0.1-0.7-0.3-1.4-0.6-2l1.4-0.7c0.4,0.8,0.6,1.6,0.7,2.5C39.2,10.6,38.9,11,38.4,11z M36.5,7.3
			c-0.5-0.8-1.2-1.5-2-2l0.9-1.3c1,0.6,1.8,1.4,2.5,2.4L36.5,7.3z M33.6,4.9c-0.9-0.4-1.8-0.6-2.8-0.7l0.1-1.6
			c1.1,0.1,2.3,0.4,3.3,0.9L33.6,4.9z M26.9,4.8l-0.6-1.4c1.1-0.5,2.2-0.7,3.3-0.8l0.1,1.6C28.8,4.2,27.8,4.4,26.9,4.8L26.9,4.8z"/>
	</g>
</g>
</svg>
