<svg xmlns="http://www.w3.org/2000/svg" width="44.176" height="14.701" viewBox="0 0 44.176 14.701">
  <path id="Trazado_2289" data-name="Trazado 2289" d="M44.029,251.918a11.026,11.026,0,0,0,.229-1.315,1.033,1.033,0,0,0-1.035-1.131h-.009a1.048,1.048,0,0,0-1.033.951,8.562,8.562,0,0,1-.154.922,2.141,2.141,0,0,0-1.663,2.085,2.119,2.119,0,0,0,.274,1.028,10.048,10.048,0,0,1-5.065,3.732,2.13,2.13,0,0,0-3.627.568,10.355,10.355,0,0,1-7.483-3.231A3.035,3.035,0,0,0,25,253.164a3.093,3.093,0,0,0-2.092-2.345,2.952,2.952,0,0,0-2.306.2,12.455,12.455,0,0,0-6.116-2.668,2.135,2.135,0,0,0-4,.058,12.377,12.377,0,0,0-7.9,4.723A2.134,2.134,0,0,0,.9,256.439a10.87,10.87,0,0,0-.418,1.908,1.043,1.043,0,0,0,2.075.225,8.961,8.961,0,0,1,.233-1.171,2.134,2.134,0,0,0,1.7-3.3,10.305,10.305,0,0,1,6.334-3.631,2.123,2.123,0,0,0,3.387-.048,10.366,10.366,0,0,1,4.96,2.124,3.059,3.059,0,0,0-.241,1.193A2.834,2.834,0,0,0,19.8,255.7a2.8,2.8,0,0,0,2.917,1,12.454,12.454,0,0,0,9.392,4.146c.041,0,.08-.005.121-.006a2.128,2.128,0,0,0,3.719-.579,12.165,12.165,0,0,0,6.457-4.7c.035,0,.069.01.1.01a2.143,2.143,0,0,0,1.52-3.655" transform="translate(-0.477 -246.998)" fill="rgba(0,0,0,0.4)"/>
</svg>
