<?xml version="1.0" encoding="utf-8"?>
<!-- Generator: Adobe Illustrator 26.4.1, SVG Export Plug-In . SVG Version: 6.00 Build 0)  -->
<svg version="1.1" id="Capa_1" xmlns="http://www.w3.org/2000/svg" xmlns:xlink="http://www.w3.org/1999/xlink" x="0px" y="0px"
	 viewBox="0 0 33.1 12.1" style="enable-background:new 0 0 33.1 12.1;" xml:space="preserve">
<style type="text/css">
	.st0{fill:#333333;}
</style>
<path id="Trazado_1652_00000036953821622170141270000013046157959339796119_" class="st0" d="M32.7,5.3L32.7,5.3
	c-0.2-0.2-0.7-0.2-0.9,0l-3,3l-8.1-8.1l-8.1,8.1L4.5,0.2L0.4,4.3c-0.2,0.2-0.2,0.7,0,0.9l0,0c0.2,0.2,0.7,0.2,0.9,0L4.5,2l8.2,8.2
	L19,3.9l8,8l1.9-1.8l0,0l3.9-3.9C33,6,33,5.6,32.7,5.3z M27,10.1L19.9,3l0.9-0.9l7.1,7.1L27,10.1z"/>
</svg>
