<svg id="Grupo_1269" data-name="Grupo 1269" xmlns="http://www.w3.org/2000/svg" xmlns:xlink="http://www.w3.org/1999/xlink" width="43.744" height="14.234" viewBox="0 0 43.744 14.234">
  <defs>
    <clipPath id="clip-path">
      <rect id="Rectángulo_2159" data-name="Rectángulo 2159" width="43.744" height="14.234" fill="#fff"/>
    </clipPath>
  </defs>
  <g id="Grupo_1236" data-name="Grupo 1236" clip-path="url(#clip-path)">
    <path id="Trazado_2236" data-name="Trazado 2236" d="M43.614,6.514A13.032,13.032,0,0,0,21.872,5.255,13.032,13.032,0,0,0,.13,6.514.965.965,0,0,0,1.8,7.48a11.144,11.144,0,0,1,8.65-5.5V13.269a.965.965,0,1,0,1.93,0V1.977a11.145,11.145,0,0,1,8.651,5.5l.289.482h1.114l.279-.482a11.144,11.144,0,0,1,8.65-5.5V13.269a.965.965,0,1,0,1.93,0V1.977a11.144,11.144,0,0,1,8.65,5.5.965.965,0,1,0,1.671-.966" transform="translate(0 0)" fill="#fff"/>
  </g>
</svg>
