<svg xmlns="http://www.w3.org/2000/svg" width="43.744" height="12.693" viewBox="0 0 43.744 12.693">
  <path id="Trazado_2287" data-name="Trazado 2287" d="M.387,52.8A13.01,13.01,0,0,0,21.282,54,12.871,12.871,0,0,0,31.308,58.7c6.473,0,11.849-4.652,12.431-10.55a.874.874,0,0,0-.859-.959.862.862,0,0,0-.868.778c-.49,5.027-5.123,9-10.707,9A10.989,10.989,0,0,1,21.98,52l-.159-.23a12.738,12.738,0,0,0-10.785-5.761,12.76,12.76,0,0,0-10.749,5.7L0,52.157ZM11.038,47.74a11.019,11.019,0,0,1,9.2,4.768,10.981,10.981,0,0,1-8.982,4.453,11.1,11.1,0,0,1-8.624-3.99,18.215,18.215,0,0,1,6.451-1.2A14.106,14.106,0,0,1,14.7,52.875l.7-1.588a15.874,15.874,0,0,0-6.3-1.253H9.026a19.585,19.585,0,0,0-5.924.931,11.244,11.244,0,0,1,7.936-3.224" transform="translate(0 -46.005)" fill="rgba(0,0,0,0.4)"/>
</svg>
