<?xml version="1.0" encoding="utf-8"?>
<!-- Generator: Adobe Illustrator 26.4.1, SVG Export Plug-In . SVG Version: 6.00 Build 0)  -->
<svg version="1.1" id="Capa_1" xmlns="http://www.w3.org/2000/svg" xmlns:xlink="http://www.w3.org/1999/xlink" x="0px" y="0px"
	 viewBox="0 0 46 14" style="enable-background:new 0 0 46 14;" xml:space="preserve">
<style type="text/css">
	.st0{fill:#FFFFFF;}
</style>
<g>
	<path class="st0" d="M44.9,1.7c-0.6,0-1,0.4-1.1,1c-0.5,4.9-5.1,8.8-10.6,8.8c-3.7,0-7.2-1.8-9.2-4.9l-0.2-0.2
		c-2.4-3.7-6.6-6-11.1-5.9C6.2,0.4,0.7,5,0,11c-0.1,0.6,0.4,1.2,1.1,1.2h0c0.6,0,1-0.4,1.1-1c0.6-4.9,5.1-8.7,10.6-8.7
		c3.7,0,7.2,1.8,9.2,4.9l0.2,0.2c2.4,3.7,6.6,6,11.1,5.9c6.6,0,12.1-4.7,12.8-10.8C46.1,2.2,45.5,1.7,44.9,1.7L44.9,1.7z"/>
	<path class="st0" d="M10.5,7C9.4,7,8.6,7.8,8.6,8.9c0,1.1,0.9,1.9,1.9,1.9s1.9-0.9,1.9-1.9C12.4,7.8,11.5,7,10.5,7z"/>
	<path class="st0" d="M15.6,7c-1.1,0-1.9,0.9-1.9,1.9c0,1.1,0.9,1.9,1.9,1.9c1.1,0,1.9-0.9,1.9-1.9C17.5,7.8,16.6,7,15.6,7z"/>
	<path class="st0" d="M30.8,7.5c1.1,0,1.9-0.9,1.9-1.9c0-1.1-0.9-1.9-1.9-1.9s-1.9,0.9-1.9,1.9C28.9,6.6,29.8,7.5,30.8,7.5z"/>
	<path class="st0" d="M35.9,7.5c1.1,0,1.9-0.9,1.9-1.9c0-1.1-0.9-1.9-1.9-1.9c-1.1,0-1.9,0.9-1.9,1.9C34,6.6,34.8,7.5,35.9,7.5z"/>
</g>
</svg>
