<?xml version="1.0" encoding="utf-8"?>
<!-- Generator: Adobe Illustrator 26.4.1, SVG Export Plug-In . SVG Version: 6.00 Build 0)  -->
<svg version="1.1" id="Capa_1" xmlns="http://www.w3.org/2000/svg" xmlns:xlink="http://www.w3.org/1999/xlink" x="0px" y="0px"
	 viewBox="0 0 29.9 12.1" style="enable-background:new 0 0 29.9 12.1;" xml:space="preserve">
<style type="text/css">
	.st0{fill:#FFFFFF;}
</style>
<g id="Grupo_465_00000090294895465039182650000007106108051682854305_" transform="translate(359.744 203)">
	<path id="Trazado_1136_00000011722037942276606820000000554796942420431287_" class="st0" d="M-331-195.5l-2.7,2.7l-7.3-7.3
		l-7.3,7.3l-7.4-7.4l-3.7,3.7c-0.2,0.2-0.2,0.6,0,0.8l0,0c0.2,0.2,0.6,0.2,0.8,0l2.9-2.9l7.4,7.4l7.3-7.3l7.3,7.3l3.5-3.5
		c0.2-0.2,0.2-0.6,0-0.8l0,0C-330.5-195.7-330.8-195.7-331-195.5z"/>
	<path id="Trazado_1137_00000045584687644037315170000009438218808932742320_" class="st0" d="M-341-201.2l2.9,2.9
		c0.2,0.2,0.6,0.2,0.8,0l0,0c0.2-0.2,0.2-0.6,0-0.8l-3.7-3.7l-3.7,3.7c-0.2,0.2-0.2,0.6,0,0.8l0,0c0.2,0.2,0.6,0.2,0.8,0L-341-201.2
		z"/>
</g>
</svg>
