<?xml version="1.0" encoding="utf-8"?>
<!-- Generator: Adobe Illustrator 26.4.1, SVG Export Plug-In . SVG Version: 6.00 Build 0)  -->
<svg version="1.1" id="Capa_1" xmlns="http://www.w3.org/2000/svg" xmlns:xlink="http://www.w3.org/1999/xlink" x="0px" y="0px"
	 viewBox="0 0 46 19" style="enable-background:new 0 0 46 19;" xml:space="preserve">
<style type="text/css">
	.st0{fill:#FFFFFF;}
</style>
<path class="st0" d="M44.1,15.3c-0.1,0-0.1,0-0.2,0l-1.5-2c1.9-1.9,3.2-4.3,3.5-7.1C46.1,5.6,45.5,5,44.9,5h0c-0.6,0-1,0.4-1.1,1
	c-0.5,4.9-5.1,8.8-10.6,8.8c-3.7,0-7.2-1.8-9.2-4.9l-0.2-0.2c-0.1-0.2-0.2-0.4-0.4-0.5l2.3-2.3C26.2,7,26.6,7,27.2,6.4
	c0.3-0.3,0.5-0.7,0.5-1.1c0-0.8-0.7-1.5-1.6-1.5c-0.4,0-0.8,0.2-1.1,0.5c-0.6,0.6-0.6,1.1-0.5,1.5l-2.1,2.1c-2.5-2.7-6-4.2-9.7-4.1
	c-2.3,0-4.5,0.6-6.4,1.6L4.4,2.7C4.6,2.4,4.6,2,4.5,1.6c-0.2-0.5-0.6-1-1.1-1.1c-1.1-0.3-2,0.5-2,1.6C1.4,3,2.1,3.7,3,3.7
	c0.1,0,0.1,0,0.2,0L5,6.2C2.3,8.1,0.4,11,0,14.4c-0.1,0.6,0.4,1.2,1.1,1.2h0c0.6,0,1-0.4,1.1-1c0.6-4.9,5.1-8.7,10.6-8.7
	c3.1,0,6.1,1.3,8.1,3.5l-2.1,2.1c-0.4-0.1-0.9-0.1-1.5,0.5c-0.3,0.3-0.5,0.7-0.5,1.1c0,0.9,0.7,1.5,1.6,1.6c0.4,0,0.8-0.2,1.1-0.5
	c0.6-0.6,0.6-1.1,0.5-1.5l1.9-1.9c0,0,0.1,0.1,0.1,0.1l0.2,0.2c2.4,3.7,6.6,6,11.1,5.9c3,0,5.8-1,8-2.6l1.4,1.9
	c-0.1,0.3-0.2,0.7-0.1,1.1c0.2,0.5,0.6,1,1.1,1.1c1.1,0.3,2-0.5,2-1.6C45.8,16,45,15.3,44.1,15.3z"/>
</svg>
