<?xml version="1.0" encoding="utf-8"?>
<!-- Generator: Adobe Illustrator 26.3.1, SVG Export Plug-In . SVG Version: 6.00 Build 0)  -->
<svg version="1.1" id="Capa_1" xmlns="http://www.w3.org/2000/svg" xmlns:xlink="http://www.w3.org/1999/xlink" x="0px" y="0px"
	 viewBox="0 0 159.9 63.8" style="enable-background:new 0 0 159.9 63.8;" xml:space="preserve">
<style type="text/css">
	.st0{fill:#fff;}
</style>
<path class="st0" d="M152.7,51.9c-0.2,0-0.4,0-0.6,0.1l-5.1-6.9c6.6-6.5,11.1-14.9,12.1-24.3c0.2-2.2-1.5-4.1-3.8-4.1h0
	c-1.9,0-3.5,1.5-3.7,3.4c-1.9,16.9-17.5,30.1-36.4,30.1c-12.8,0.2-24.7-6.2-31.8-16.9l-0.6-0.8c-0.4-0.6-0.8-1.2-1.3-1.8l7.8-7.8
	c1.5,0.4,3.1,0.4,5.2-1.7c1.1-1,1.8-2.4,1.7-3.9c-0.1-2.9-2.5-5.2-5.4-5.3c-1.5,0-2.8,0.7-3.8,1.8c-2,2.1-2,3.7-1.6,5.2L78,26.4
	C69.5,17.2,57.4,12,44.7,12.1c-8,0-15.5,2-22,5.5l-6.6-9c0.5-1.1,0.6-2.5,0.2-3.9c-0.5-1.8-2.1-3.3-3.9-3.7C8.8,0.2,5.5,3,5.5,6.5
	C5.5,9.5,8,12,11,12c0.2,0,0.4,0,0.6-0.1l6.4,8.6C8.7,27.2,2.2,37.2,0.9,48.7c-0.3,2.2,1.5,4.1,3.7,4.2h0c1.9,0,3.5-1.4,3.8-3.4
	c2-16.7,17.6-29.8,36.4-29.8c10.7-0.1,20.8,4.3,28,12.1l-7.1,7.1c-1.5-0.4-3.1-0.4-5.2,1.6c-1.1,1-1.8,2.4-1.8,3.8
	c0.1,2.9,2.4,5.3,5.4,5.4c1.5,0,2.8-0.7,3.9-1.7c2-2.1,2-3.7,1.6-5.2l6.7-6.7c0.1,0.2,0.2,0.3,0.3,0.5l0.6,0.8
	c8.4,12.8,22.8,20.5,38.1,20.4c10.4,0,20-3.4,27.6-9.1l4.9,6.6c-0.5,1.1-0.6,2.5-0.2,3.8c0.5,1.8,2.1,3.3,3.9,3.7
	c3.7,0.9,6.9-1.9,6.9-5.4C158.2,54.3,155.7,51.9,152.7,51.9z"/>
</svg>
